<?xml version="1.0" encoding="utf-8"?>
<!-- Generator: Adobe Illustrator 19.0.0, SVG Export Plug-In . SVG Version: 6.00 Build 0)  -->
<svg version="1.0" id="Layer_1" xmlns="http://www.w3.org/2000/svg" xmlns:xlink="http://www.w3.org/1999/xlink" x="0px" y="0px"
	 viewBox="0 0 1920 1080" style="enable-background:new 0 0 1920 1080;" xml:space="preserve">
<style type="text/css">
	.st0{fill:none;stroke:#7CFFC8;stroke-miterlimit:10;}
</style>
<line id="XMLID_20_" class="st0" x1="0" y1="1080.5" x2="1963" y2="1080.5"/>
<line id="XMLID_21_" class="st0" x1="0" y1="1030.5" x2="1963" y2="1030.5"/>
<line id="XMLID_22_" class="st0" x1="0" y1="981.5" x2="1963" y2="981.5"/>
<line id="XMLID_23_" class="st0" x1="0" y1="932.5" x2="1963" y2="932.5"/>
<line id="XMLID_24_" class="st0" x1="0" y1="883.5" x2="1963" y2="883.5"/>
<line id="XMLID_25_" class="st0" x1="0" y1="834.5" x2="1963" y2="834.5"/>
<line id="XMLID_26_" class="st0" x1="0" y1="785.5" x2="1963" y2="785.5"/>
<line id="XMLID_27_" class="st0" x1="0" y1="736.5" x2="1963" y2="736.5"/>
<line id="XMLID_28_" class="st0" x1="0" y1="687.5" x2="1963" y2="687.5"/>
<line id="XMLID_29_" class="st0" x1="0" y1="638.5" x2="1963" y2="638.5"/>
<line id="XMLID_30_" class="st0" x1="0" y1="589.5" x2="1963" y2="589.5"/>
<line id="XMLID_31_" class="st0" x1="0" y1="540.5" x2="1963" y2="540.5"/>
<line id="XMLID_32_" class="st0" x1="0" y1="491.5" x2="1963" y2="491.5"/>
<line id="XMLID_33_" class="st0" x1="0" y1="442.5" x2="1963" y2="442.5"/>
<line id="XMLID_34_" class="st0" x1="0" y1="393.5" x2="1963" y2="393.5"/>
<line id="XMLID_35_" class="st0" x1="0" y1="343.5" x2="1963" y2="343.5"/>
<line id="XMLID_36_" class="st0" x1="0" y1="294.5" x2="1963" y2="294.5"/>
<line id="XMLID_37_" class="st0" x1="0" y1="245.5" x2="1963" y2="245.5"/>
<line id="XMLID_38_" class="st0" x1="0" y1="196.5" x2="1963" y2="196.5"/>
<line id="XMLID_39_" class="st0" x1="0" y1="147.5" x2="1963" y2="147.5"/>
<line id="XMLID_40_" class="st0" x1="0" y1="98.5" x2="1963" y2="98.5"/>
<line id="XMLID_41_" class="st0" x1="0" y1="49.5" x2="1963" y2="49.5"/>
<line id="XMLID_42_" class="st0" x1="1910.5" y1="0" x2="1910.5" y2="1079"/>
<line id="XMLID_43_" class="st0" x1="1856.5" y1="0" x2="1856.5" y2="1079"/>
<line id="XMLID_44_" class="st0" x1="1803.5" y1="0" x2="1803.5" y2="1079"/>
<line id="XMLID_45_" class="st0" x1="1750.5" y1="0" x2="1750.5" y2="1079"/>
<line id="XMLID_46_" class="st0" x1="1697.5" y1="0" x2="1697.5" y2="1079"/>
<line id="XMLID_47_" class="st0" x1="1644.5" y1="0" x2="1644.5" y2="1079"/>
<line id="XMLID_48_" class="st0" x1="1591.5" y1="0" x2="1591.5" y2="1079"/>
<line id="XMLID_49_" class="st0" x1="1537.5" y1="0" x2="1537.5" y2="1079"/>
<line id="XMLID_50_" class="st0" x1="1484.5" y1="0" x2="1484.5" y2="1079"/>
<line id="XMLID_51_" class="st0" x1="1432.5" y1="0" x2="1432.5" y2="1079"/>
<line id="XMLID_52_" class="st0" x1="1379.5" y1="0" x2="1379.5" y2="1079"/>
<line id="XMLID_53_" class="st0" x1="1326.5" y1="0" x2="1326.5" y2="1079"/>
<line id="XMLID_54_" class="st0" x1="1273.5" y1="0" x2="1273.5" y2="1079"/>
<line id="XMLID_55_" class="st0" x1="1220.5" y1="0" x2="1220.5" y2="1079"/>
<line id="XMLID_56_" class="st0" x1="1166.5" y1="0" x2="1166.5" y2="1079"/>
<line id="XMLID_57_" class="st0" x1="1113.5" y1="0" x2="1113.5" y2="1079"/>
<line id="XMLID_58_" class="st0" x1="1060.5" y1="0" x2="1060.5" y2="1079"/>
<line id="XMLID_59_" class="st0" x1="1007.5" y1="0" x2="1007.5" y2="1079"/>
<line id="XMLID_60_" class="st0" x1="955.5" y1="0" x2="955.5" y2="1079"/>
<line id="XMLID_61_" class="st0" x1="902.5" y1="0" x2="902.5" y2="1079"/>
<line id="XMLID_62_" class="st0" x1="848.5" y1="0" x2="848.5" y2="1079"/>
<line id="XMLID_63_" class="st0" x1="795.5" y1="0" x2="795.5" y2="1079"/>
<line id="XMLID_64_" class="st0" x1="742.5" y1="0" x2="742.5" y2="1079"/>
<line id="XMLID_65_" class="st0" x1="689.5" y1="0" x2="689.5" y2="1079"/>
<line id="XMLID_66_" class="st0" x1="636.5" y1="0" x2="636.5" y2="1079"/>
<line id="XMLID_67_" class="st0" x1="583.5" y1="0" x2="583.5" y2="1079"/>
<line id="XMLID_68_" class="st0" x1="530.5" y1="0" x2="530.5" y2="1079"/>
<line id="XMLID_69_" class="st0" x1="477.5" y1="0" x2="477.5" y2="1079"/>
<line id="XMLID_70_" class="st0" x1="424.5" y1="0" x2="424.5" y2="1079"/>
<line id="XMLID_71_" class="st0" x1="371.5" y1="0" x2="371.5" y2="1079"/>
<line id="XMLID_72_" class="st0" x1="318.5" y1="0" x2="318.5" y2="1079"/>
<line id="XMLID_73_" class="st0" x1="265.5" y1="0" x2="265.5" y2="1079"/>
<line id="XMLID_74_" class="st0" x1="212.5" y1="0" x2="212.5" y2="1079"/>
<line id="XMLID_75_" class="st0" x1="158.5" y1="0" x2="158.5" y2="1079"/>
<line id="XMLID_76_" class="st0" x1="105.5" y1="0" x2="105.5" y2="1079"/>
<line id="XMLID_77_" class="st0" x1="52.5" y1="0" x2="52.5" y2="1079"/>
</svg>
